<svg xmlns="http://www.w3.org/2000/svg" width="62.5" height="58.596" viewBox="0 0 62.5 58.596">
  <g id="group" transform="translate(0.25 -15.87)">
    <path id="Path_1245" data-name="Path 1245" d="M103.655,293.965a17.241,17.241,0,0,1-4.012-6.6,1.574,1.574,0,0,0-2.99.986,20.4,20.4,0,0,0,4.747,7.812,1.575,1.575,0,0,0,2.255-2.2Z" transform="translate(-84.886 -237.469)" fill="#fb6c23" stroke="#fff" stroke-width="0.5"/>
    <path id="Path_1246" data-name="Path 1246" d="M359.759,286.192a1.574,1.574,0,0,0-1.988,1h0a17.242,17.242,0,0,1-4.015,6.6,1.574,1.574,0,1,0,2.255,2.2,20.408,20.408,0,0,0,4.748-7.812A1.574,1.574,0,0,0,359.759,286.192Z" transform="translate(-310.525 -237.298)" fill="#fb6c23" stroke="#fff" stroke-width="0.5"/>
    <path id="Path_1247" data-name="Path 1247" d="M218.785,84.371a20.485,20.485,0,0,0-9.106,0,1.574,1.574,0,0,0,.7,3.069,17.317,17.317,0,0,1,7.7,0,1.574,1.574,0,0,0,.7-3.069Z" transform="translate(-183.231 -59.536)" fill="#fb6c23" stroke="#fff" stroke-width="0.5"/>
    <path id="Path_1248" data-name="Path 1248" d="M360.978,16.12a7.183,7.183,0,1,0,7.278,7.182A7.242,7.242,0,0,0,360.978,16.12Zm0,11.216a4.034,4.034,0,1,1,0-8.066h0a4.035,4.035,0,1,1,0,8.067Z" transform="translate(-310.869)" fill="#fb6c23" stroke="#fff" stroke-width="0.5"/>
    <path id="Path_1249" data-name="Path 1249" d="M333.263,139.18h-1.647a1.574,1.574,0,0,0-1.1.452l-3.013,2.962-3.012-2.962a1.574,1.574,0,0,0-1.1-.452h-1.647a6.1,6.1,0,0,0-6.129,6.055v4.394a3.009,3.009,0,0,0,3.018,2.993h17.746a3.009,3.009,0,0,0,3.018-3v-4.393A6.1,6.1,0,0,0,333.263,139.18Zm2.98,10.293H318.757v-4.238a2.945,2.945,0,0,1,2.98-2.906h1l3.161,3.107a2.292,2.292,0,0,0,3.2,0l3.161-3.107h1a2.947,2.947,0,0,1,2.98,2.906Z" transform="translate(-277.392 -108.158)" fill="#fb6c23" stroke="#fff" stroke-width="0.5"/>
    <path id="Path_1250" data-name="Path 1250" d="M45.378,16.12A7.183,7.183,0,1,0,52.655,23.3,7.242,7.242,0,0,0,45.378,16.12Zm0,11.216a4.034,4.034,0,1,1,0-8.066h0a4.035,4.035,0,1,1,0,8.067Z" transform="translate(-33.486)" fill="#fb6c23" stroke="#fff" stroke-width="0.5"/>
    <path id="Path_1251" data-name="Path 1251" d="M17.654,139.16H16.007a1.574,1.574,0,0,0-1.1.452l-3.012,2.964-3.013-2.962a1.574,1.574,0,0,0-1.1-.452H6.129A6.1,6.1,0,0,0,0,145.215v4.394A3.009,3.009,0,0,0,3.018,152.6H20.765a3.009,3.009,0,0,0,3.018-2.993v-4.393A6.1,6.1,0,0,0,17.654,139.16Zm2.981,10.3H3.148v-4.241a2.945,2.945,0,0,1,2.98-2.906h1l3.162,3.11a2.292,2.292,0,0,0,3.2,0l3.161-3.107h1a2.947,2.947,0,0,1,2.98,2.906Z" transform="translate(0 -108.141)" fill="#fb6c23" stroke="#fff" stroke-width="0.5"/>
    <path id="Path_1252" data-name="Path 1252" d="M203.178,261.82A7.183,7.183,0,1,0,210.455,269,7.239,7.239,0,0,0,203.178,261.82Zm0,11.214h0A4.035,4.035,0,1,1,207.307,269,4.087,4.087,0,0,1,203.178,273.036Z" transform="translate(-172.178 -215.948)" fill="#fb6c23" stroke="#fff" stroke-width="0.5"/>
    <path id="Path_1253" data-name="Path 1253" d="M175.463,384.87h-1.646a1.574,1.574,0,0,0-1.1.452l-3.014,2.962-3.012-2.962a1.575,1.575,0,0,0-1.1-.452h-1.647a6.1,6.1,0,0,0-6.129,6.055v4.394a3.009,3.009,0,0,0,3.018,2.993h17.746a3.009,3.009,0,0,0,3.018-2.993v-4.4A6.1,6.1,0,0,0,175.463,384.87Zm2.98,10.293H160.957v-4.238a2.945,2.945,0,0,1,2.98-2.906h1l3.161,3.107a2.292,2.292,0,0,0,3.2,0l3.161-3.107h1a2.947,2.947,0,0,1,2.98,2.906Z" transform="translate(-138.7 -324.097)" fill="#fb6c23" stroke="#fff" stroke-width="0.5"/>
  </g>
</svg>
