<svg xmlns="http://www.w3.org/2000/svg" width="55.499" height="55.499" viewBox="0 0 55.499 55.499">
  <g id="price-tag" transform="translate(0 0)">
    <path id="Path_9355" data-name="Path 9355" d="M177.49,138.267l7.665-22.995a1.626,1.626,0,1,0-3.085-1.028l-7.665,22.995a1.626,1.626,0,1,0,3.085,1.028Z" transform="translate(-155.425 -100.868)" fill="#fb6c23"/>
    <path id="Path_9356" data-name="Path 9356" d="M269.411,198.959a4.878,4.878,0,1,0-4.878-4.878A4.883,4.883,0,0,0,269.411,198.959Zm0-6.5a1.626,1.626,0,1,1-1.626,1.626A1.628,1.628,0,0,1,269.411,192.455Z" transform="translate(-235.858 -168.694)" fill="#fb6c23"/>
    <path id="Path_9357" data-name="Path 9357" d="M99.7,189.2a4.878,4.878,0,1,0,4.878,4.878A4.883,4.883,0,0,0,99.7,189.2Zm0,6.5a1.626,1.626,0,1,1,1.626-1.626A1.628,1.628,0,0,1,99.7,195.707Z" transform="translate(-84.548 -168.694)" fill="#fb6c23"/>
    <path id="Path_9358" data-name="Path 9358" d="M55.174,20.162,49.5,12.6l.221-1.548a1.626,1.626,0,0,0-.46-1.38L45.817,6.225l3.449-3.449a1.626,1.626,0,0,0-2.3-2.3L43.517,3.926,40.068.476a1.628,1.628,0,0,0-1.38-.46l-16.1,2.3a1.626,1.626,0,0,0-.92.46L1.744,22.7a5.969,5.969,0,0,0,0,8.431L18.606,48a5.947,5.947,0,0,0,1.122.88v.659A5.969,5.969,0,0,0,25.69,55.5H49.538A5.969,5.969,0,0,0,55.5,49.538v-28.4a1.626,1.626,0,0,0-.325-.976ZM4.043,28.836a2.713,2.713,0,0,1,0-3.833L23.588,5.459,38.343,3.351l2.874,2.874-2.3,2.3-1.15-1.15a1.626,1.626,0,0,0-2.3,2.3l4.6,4.6a1.626,1.626,0,1,0,2.3-2.3l-1.15-1.15,2.3-2.3L46.391,11.4,44.283,26.154,24.738,45.7a2.71,2.71,0,0,1-3.833,0Zm48.2,20.7a2.713,2.713,0,0,1-2.71,2.71H25.69a2.713,2.713,0,0,1-2.7-2.51A5.939,5.939,0,0,0,27.038,48L46.966,28.07a1.626,1.626,0,0,0,.46-.92l1.428-10,3.394,4.525Z" transform="translate(0 0)" fill="#fb6c23"/>
  </g>
</svg>
