<svg xmlns="http://www.w3.org/2000/svg" width="60.5" height="60.5" viewBox="0 0 60.5 60.5">
  <g id="technology" transform="translate(-1.75 -1.75)">
    <path id="Path_9359" data-name="Path 9359" d="M16,32A16,16,0,1,0,32,16,16.019,16.019,0,0,0,16,32Zm8.485-11.793,1.62,3.24a1,1,0,0,0,.447.447l3.034,1.517L27.434,29H24a1,1,0,0,0-.949.684L22.279,32H18a13.991,13.991,0,0,1,6.485-11.793ZM32,43v3a13.989,13.989,0,0,1-11.723-6.371l4.543-1.514L28.4,40.8a1,1,0,0,0,1.225-.019l4.3-3.441L36,39.414v1.805l-3.243.811A1,1,0,0,0,32,43ZM46,32a13.9,13.9,0,0,1-1.44,6.146l-2.273-2.273,1.545-2.318a1,1,0,0,0,.138-.8l-1-4a1,1,0,0,0-1.287-.706l-2.316.772-2.282-3.042.7-2.782h4.928A13.933,13.933,0,0,1,46,32ZM37,21a1,1,0,0,0-.97.757l-1,4a1,1,0,0,0,.17.843l3,4a1,1,0,0,0,1.116.349l1.976-.659.63,2.523-1.754,2.632a1,1,0,0,0,.125,1.262l3.228,3.228A14,14,0,0,1,34,45.84V43.78l3.243-.811A1,1,0,0,0,38,42V39a1,1,0,0,0-.293-.707l-3-3a1,1,0,0,0-1.332-.074l-4.4,3.516L25.6,36.2a1,1,0,0,0-.917-.149l-5.387,1.8A13.9,13.9,0,0,1,18.159,34H23a1,1,0,0,0,.949-.684L24.721,31H28a1,1,0,0,0,.857-.485l3-5a1,1,0,0,0-.41-1.409l-3.7-1.851-1.5-3A13.9,13.9,0,0,1,40.632,21Z" fill="#fb6c23" stroke="#fb6c23" stroke-width="0.5"/>
    <path id="Path_9360" data-name="Path 9360" d="M59,29a3,3,0,0,0-2.816,2H50v2h6.184A2.995,2.995,0,1,0,59,29Zm0,4a1,1,0,1,1,1-1A1,1,0,0,1,59,33Z" fill="#fb6c23" stroke="#fb6c23" stroke-width="0.5"/>
    <path id="Path_9361" data-name="Path 9361" d="M59,49a2.993,2.993,0,0,0-5.816-1H51.677l-1.749-4.372A1,1,0,0,0,49,43H46v2h2.323l1.749,4.372A1,1,0,0,0,51,50h2.184A2.993,2.993,0,0,0,59,49Zm-4,0a1,1,0,1,1,1,1A1,1,0,0,1,55,49Z" fill="#fb6c23" stroke="#fb6c23" stroke-width="0.5"/>
    <path id="Path_9362" data-name="Path 9362" d="M48,61a3,3,0,1,0-2.816-4h-2.43l-1.793-6.275A1,1,0,0,0,40,50H35v2h4.246l1.793,6.275A1,1,0,0,0,42,59h3.184A3,3,0,0,0,48,61Zm0-4a1,1,0,1,1-1,1A1,1,0,0,1,48,57Z" fill="#fb6c23" stroke="#fb6c23" stroke-width="0.5"/>
    <path id="Path_9363" data-name="Path 9363" d="M39.9,13.447,42.618,8h2.554a3.121,3.121,0,1,0,.013-2H42a1,1,0,0,0-.9.553L38.382,12H35v2h4a1,1,0,0,0,.9-.553Zm7.3-7.04a1,1,0,0,1,.655-.4A.968.968,0,0,1,48,6a1,1,0,1,1-.988,1.15A.99.99,0,0,1,47.194,6.407Z" fill="#fb6c23" stroke="#fb6c23" stroke-width="0.5"/>
    <path id="Path_9364" data-name="Path 9364" d="M54.184,17a3,3,0,1,0,0-2H50a1,1,0,0,0-.832.445L47.465,18H45v2h3a1,1,0,0,0,.832-.445L50.535,17ZM57,15a1,1,0,1,1-1,1A1,1,0,0,1,57,15Z" fill="#fb6c23" stroke="#fb6c23" stroke-width="0.5"/>
    <path id="Path_9365" data-name="Path 9365" d="M3,27a1,1,0,0,0-1,1v8a1,1,0,0,0,1,1H5.464a26.851,26.851,0,0,0,1.058,3.937L4.385,42.17a1,1,0,0,0-.366,1.366l4,6.928a1,1,0,0,0,1.366.366l2.141-1.236A27.267,27.267,0,0,0,14.4,52.473l-1.236,2.141a1,1,0,0,0,.366,1.366l6.928,4a1,1,0,0,0,1.366-.366l1.233-2.137A26.784,26.784,0,0,0,27,58.535V61a1,1,0,0,0,1,1h4a1,1,0,0,0,1-1V51a1,1,0,0,0-1-1,18,18,0,0,1,0-36,1,1,0,0,0,1-1V3a1,1,0,0,0-1-1H28a1,1,0,0,0-1,1V5.464a26.851,26.851,0,0,0-3.937,1.058L21.83,4.385a1,1,0,0,0-1.366-.366l-6.928,4a1,1,0,0,0-.366,1.366l1.236,2.141a27.267,27.267,0,0,0-2.879,2.879L9.385,13.17a1,1,0,0,0-1.366.366l-4,6.928a1,1,0,0,0,.366,1.366l2.137,1.233A26.851,26.851,0,0,0,5.464,27Zm4.3,1.153a24.85,24.85,0,0,1,1.39-5.172,1,1,0,0,0-.433-1.228l-2-1.155,3-5.2,2,1.157a1,1,0,0,0,1.278-.238,25.2,25.2,0,0,1,3.787-3.787,1,1,0,0,0,.238-1.278l-1.157-2,5.2-3,1.155,2a1,1,0,0,0,1.227.433,24.866,24.866,0,0,1,5.172-1.39A1,1,0,0,0,29,6.307V4h2v8.025a20,20,0,0,0,0,39.95V60H29V57.693a1,1,0,0,0-.847-.988,24.85,24.85,0,0,1-5.172-1.39,1,1,0,0,0-1.228.433l-1.155,2-5.2-3,1.157-2a1,1,0,0,0-.238-1.278,25.2,25.2,0,0,1-3.787-3.787,1,1,0,0,0-1.278-.238l-2,1.157-3-5.2,2-1.155a1,1,0,0,0,.433-1.227A24.866,24.866,0,0,1,7.3,35.848,1,1,0,0,0,6.307,35H4V29H6.307a1,1,0,0,0,.988-.847Z" fill="#fb6c23" stroke="#fb6c23" stroke-width="0.5"/>
  </g>
</svg>
